<mxfile host="app.diagrams.net" modified="2024-04-29T13:12:01.966Z" agent="Mozilla/5.0 (Windows NT 10.0; Win64; x64) AppleWebKit/537.36 (KHTML, like Gecko) Chrome/124.0.0.0 Safari/537.36" etag="iYqVV1ayofB9I_ZQcBNA" version="24.0.7" type="device">
  <diagram name="Страница — 1" id="0e5GRpqP4qVhgoxqQGmo">
    <mxGraphModel dx="2027" dy="2106" grid="1" gridSize="10" guides="1" tooltips="1" connect="1" arrows="1" fold="1" page="1" pageScale="1" pageWidth="827" pageHeight="1169" math="0" shadow="0">
      <root>
        <mxCell id="0" />
        <mxCell id="1" parent="0" />
        <mxCell id="yrrOHY21MLCQewiOi2q3-139" value="" style="group" vertex="1" connectable="0" parent="1">
          <mxGeometry x="231" y="70" width="130" height="160" as="geometry" />
        </mxCell>
        <mxCell id="yrrOHY21MLCQewiOi2q3-15" value="" style="rounded=0;whiteSpace=wrap;html=1;fontFamily=Times New Roman;" vertex="1" parent="yrrOHY21MLCQewiOi2q3-139">
          <mxGeometry width="130" height="20" as="geometry" />
        </mxCell>
        <mxCell id="yrrOHY21MLCQewiOi2q3-16" value="" style="shape=internalStorage;whiteSpace=wrap;html=1;backgroundOutline=1;fontFamily=Times New Roman;" vertex="1" parent="yrrOHY21MLCQewiOi2q3-139">
          <mxGeometry y="20" width="130" height="140" as="geometry" />
        </mxCell>
        <mxCell id="yrrOHY21MLCQewiOi2q3-17" value="BOURGEOISIE" style="text;html=1;align=center;verticalAlign=middle;whiteSpace=wrap;rounded=0;fontFamily=Times New Roman;" vertex="1" parent="yrrOHY21MLCQewiOi2q3-139">
          <mxGeometry width="130" height="20" as="geometry" />
        </mxCell>
        <mxCell id="yrrOHY21MLCQewiOi2q3-18" value="PK" style="text;html=1;align=center;verticalAlign=middle;whiteSpace=wrap;rounded=0;fontFamily=Times New Roman;" vertex="1" parent="yrrOHY21MLCQewiOi2q3-139">
          <mxGeometry y="20" width="20" height="20" as="geometry" />
        </mxCell>
        <mxCell id="yrrOHY21MLCQewiOi2q3-19" value="ID" style="text;html=1;align=left;verticalAlign=middle;whiteSpace=wrap;rounded=0;fontFamily=Times New Roman;" vertex="1" parent="yrrOHY21MLCQewiOi2q3-139">
          <mxGeometry x="20" y="20" width="110" height="20" as="geometry" />
        </mxCell>
        <mxCell id="yrrOHY21MLCQewiOi2q3-20" value="LOGIN" style="text;html=1;align=left;verticalAlign=middle;whiteSpace=wrap;rounded=0;fontFamily=Times New Roman;" vertex="1" parent="yrrOHY21MLCQewiOi2q3-139">
          <mxGeometry x="20" y="40" width="110" height="20" as="geometry" />
        </mxCell>
        <mxCell id="yrrOHY21MLCQewiOi2q3-21" value="NAME" style="text;html=1;align=left;verticalAlign=middle;whiteSpace=wrap;rounded=0;fontFamily=Times New Roman;" vertex="1" parent="yrrOHY21MLCQewiOi2q3-139">
          <mxGeometry x="20" y="60" width="100" height="20" as="geometry" />
        </mxCell>
        <mxCell id="yrrOHY21MLCQewiOi2q3-22" value="PASSWORD_HASH" style="text;html=1;align=left;verticalAlign=middle;whiteSpace=wrap;rounded=0;fontFamily=Times New Roman;" vertex="1" parent="yrrOHY21MLCQewiOi2q3-139">
          <mxGeometry x="20" y="80" width="100" height="20" as="geometry" />
        </mxCell>
        <mxCell id="yrrOHY21MLCQewiOi2q3-23" value="APPROVED" style="text;html=1;align=left;verticalAlign=middle;whiteSpace=wrap;rounded=0;fontFamily=Times New Roman;" vertex="1" parent="yrrOHY21MLCQewiOi2q3-139">
          <mxGeometry x="20" y="100" width="100" height="20" as="geometry" />
        </mxCell>
        <mxCell id="yrrOHY21MLCQewiOi2q3-24" value="DESCRIPTION" style="text;html=1;align=left;verticalAlign=middle;whiteSpace=wrap;rounded=0;fontFamily=Times New Roman;" vertex="1" parent="yrrOHY21MLCQewiOi2q3-139">
          <mxGeometry x="20" y="120" width="100" height="20" as="geometry" />
        </mxCell>
        <mxCell id="yrrOHY21MLCQewiOi2q3-26" value="EMAIL" style="text;html=1;align=left;verticalAlign=middle;whiteSpace=wrap;rounded=0;fontFamily=Times New Roman;" vertex="1" parent="yrrOHY21MLCQewiOi2q3-139">
          <mxGeometry x="20" y="140" width="100" height="20" as="geometry" />
        </mxCell>
        <mxCell id="yrrOHY21MLCQewiOi2q3-140" value="" style="group" vertex="1" connectable="0" parent="1">
          <mxGeometry x="211" y="-40" width="150" height="80" as="geometry" />
        </mxCell>
        <mxCell id="yrrOHY21MLCQewiOi2q3-87" value="" style="rounded=0;whiteSpace=wrap;html=1;fontFamily=Times New Roman;" vertex="1" parent="yrrOHY21MLCQewiOi2q3-140">
          <mxGeometry width="150" height="20" as="geometry" />
        </mxCell>
        <mxCell id="yrrOHY21MLCQewiOi2q3-88" value="" style="shape=internalStorage;whiteSpace=wrap;html=1;backgroundOutline=1;fontFamily=Times New Roman;" vertex="1" parent="yrrOHY21MLCQewiOi2q3-140">
          <mxGeometry y="20" width="150" height="60" as="geometry" />
        </mxCell>
        <mxCell id="yrrOHY21MLCQewiOi2q3-89" value="PROMOTION_REQUESTS" style="text;html=1;align=center;verticalAlign=middle;whiteSpace=wrap;rounded=0;fontFamily=Times New Roman;" vertex="1" parent="yrrOHY21MLCQewiOi2q3-140">
          <mxGeometry width="150" height="20" as="geometry" />
        </mxCell>
        <mxCell id="yrrOHY21MLCQewiOi2q3-90" value="PK" style="text;html=1;align=center;verticalAlign=middle;whiteSpace=wrap;rounded=0;fontFamily=Times New Roman;" vertex="1" parent="yrrOHY21MLCQewiOi2q3-140">
          <mxGeometry y="20" width="20" height="20" as="geometry" />
        </mxCell>
        <mxCell id="yrrOHY21MLCQewiOi2q3-91" value="ID" style="text;html=1;align=left;verticalAlign=middle;whiteSpace=wrap;rounded=0;fontFamily=Times New Roman;" vertex="1" parent="yrrOHY21MLCQewiOi2q3-140">
          <mxGeometry x="20" y="20" width="130" height="20" as="geometry" />
        </mxCell>
        <mxCell id="yrrOHY21MLCQewiOi2q3-92" value="COMPANY_ID" style="text;html=1;align=left;verticalAlign=middle;whiteSpace=wrap;rounded=0;fontFamily=Times New Roman;" vertex="1" parent="yrrOHY21MLCQewiOi2q3-140">
          <mxGeometry x="20" y="40" width="130" height="20" as="geometry" />
        </mxCell>
        <mxCell id="yrrOHY21MLCQewiOi2q3-93" value="PROOF" style="text;html=1;align=left;verticalAlign=middle;whiteSpace=wrap;rounded=0;fontFamily=Times New Roman;" vertex="1" parent="yrrOHY21MLCQewiOi2q3-140">
          <mxGeometry x="20" y="60" width="100" height="20" as="geometry" />
        </mxCell>
        <mxCell id="yrrOHY21MLCQewiOi2q3-95" value="FK" style="text;html=1;align=center;verticalAlign=middle;whiteSpace=wrap;rounded=0;fontFamily=Times New Roman;" vertex="1" parent="yrrOHY21MLCQewiOi2q3-140">
          <mxGeometry y="40" width="20" height="20" as="geometry" />
        </mxCell>
        <mxCell id="yrrOHY21MLCQewiOi2q3-141" value="" style="group" vertex="1" connectable="0" parent="1">
          <mxGeometry x="-50" y="-40" width="170" height="100" as="geometry" />
        </mxCell>
        <mxCell id="yrrOHY21MLCQewiOi2q3-124" value="" style="rounded=0;whiteSpace=wrap;html=1;fontFamily=Times New Roman;" vertex="1" parent="yrrOHY21MLCQewiOi2q3-141">
          <mxGeometry width="170" height="20" as="geometry" />
        </mxCell>
        <mxCell id="yrrOHY21MLCQewiOi2q3-125" value="" style="shape=internalStorage;whiteSpace=wrap;html=1;backgroundOutline=1;fontFamily=Times New Roman;" vertex="1" parent="yrrOHY21MLCQewiOi2q3-141">
          <mxGeometry y="20" width="170" height="80" as="geometry" />
        </mxCell>
        <mxCell id="yrrOHY21MLCQewiOi2q3-126" value="ACCOUNT_DROP_REQUESTS" style="text;html=1;align=center;verticalAlign=middle;whiteSpace=wrap;rounded=0;fontFamily=Times New Roman;" vertex="1" parent="yrrOHY21MLCQewiOi2q3-141">
          <mxGeometry width="170" height="20" as="geometry" />
        </mxCell>
        <mxCell id="yrrOHY21MLCQewiOi2q3-127" value="PK" style="text;html=1;align=center;verticalAlign=middle;whiteSpace=wrap;rounded=0;fontFamily=Times New Roman;" vertex="1" parent="yrrOHY21MLCQewiOi2q3-141">
          <mxGeometry y="20" width="20" height="20" as="geometry" />
        </mxCell>
        <mxCell id="yrrOHY21MLCQewiOi2q3-128" value="ID" style="text;html=1;align=left;verticalAlign=middle;whiteSpace=wrap;rounded=0;fontFamily=Times New Roman;" vertex="1" parent="yrrOHY21MLCQewiOi2q3-141">
          <mxGeometry x="20" y="20" width="100" height="20" as="geometry" />
        </mxCell>
        <mxCell id="yrrOHY21MLCQewiOi2q3-129" value="B_SUBJECT" style="text;html=1;align=left;verticalAlign=middle;whiteSpace=wrap;rounded=0;fontFamily=Times New Roman;" vertex="1" parent="yrrOHY21MLCQewiOi2q3-141">
          <mxGeometry x="20" y="40" width="150" height="20" as="geometry" />
        </mxCell>
        <mxCell id="yrrOHY21MLCQewiOi2q3-131" value="P_SUBJECT" style="text;html=1;align=left;verticalAlign=middle;whiteSpace=wrap;rounded=0;fontFamily=Times New Roman;" vertex="1" parent="yrrOHY21MLCQewiOi2q3-141">
          <mxGeometry x="20" y="60" width="150" height="20" as="geometry" />
        </mxCell>
        <mxCell id="yrrOHY21MLCQewiOi2q3-132" value="COMMENTARY" style="text;html=1;align=left;verticalAlign=middle;whiteSpace=wrap;rounded=0;fontFamily=Times New Roman;" vertex="1" parent="yrrOHY21MLCQewiOi2q3-141">
          <mxGeometry x="20" y="80" width="100" height="20" as="geometry" />
        </mxCell>
        <mxCell id="yrrOHY21MLCQewiOi2q3-133" value="FK" style="text;html=1;align=center;verticalAlign=middle;whiteSpace=wrap;rounded=0;fontFamily=Times New Roman;" vertex="1" parent="yrrOHY21MLCQewiOi2q3-141">
          <mxGeometry y="60" width="20" height="20" as="geometry" />
        </mxCell>
        <mxCell id="yrrOHY21MLCQewiOi2q3-152" value="FK" style="text;html=1;align=center;verticalAlign=middle;whiteSpace=wrap;rounded=0;fontFamily=Times New Roman;" vertex="1" parent="yrrOHY21MLCQewiOi2q3-141">
          <mxGeometry y="40" width="20" height="20" as="geometry" />
        </mxCell>
        <mxCell id="yrrOHY21MLCQewiOi2q3-148" value="" style="group" vertex="1" connectable="0" parent="1">
          <mxGeometry x="107" y="259" width="96" height="120" as="geometry" />
        </mxCell>
        <mxCell id="yrrOHY21MLCQewiOi2q3-108" value="" style="rounded=0;whiteSpace=wrap;html=1;fontFamily=Times New Roman;" vertex="1" parent="yrrOHY21MLCQewiOi2q3-148">
          <mxGeometry width="96" height="20" as="geometry" />
        </mxCell>
        <mxCell id="yrrOHY21MLCQewiOi2q3-109" value="" style="shape=internalStorage;whiteSpace=wrap;html=1;backgroundOutline=1;fontFamily=Times New Roman;" vertex="1" parent="yrrOHY21MLCQewiOi2q3-148">
          <mxGeometry y="20" width="96" height="100" as="geometry" />
        </mxCell>
        <mxCell id="yrrOHY21MLCQewiOi2q3-110" value="BLACK_LIST" style="text;html=1;align=center;verticalAlign=middle;whiteSpace=wrap;rounded=0;fontFamily=Times New Roman;" vertex="1" parent="yrrOHY21MLCQewiOi2q3-148">
          <mxGeometry width="96" height="20" as="geometry" />
        </mxCell>
        <mxCell id="yrrOHY21MLCQewiOi2q3-111" value="PK" style="text;html=1;align=center;verticalAlign=middle;whiteSpace=wrap;rounded=0;fontFamily=Times New Roman;" vertex="1" parent="yrrOHY21MLCQewiOi2q3-148">
          <mxGeometry y="20" width="20" height="20" as="geometry" />
        </mxCell>
        <mxCell id="yrrOHY21MLCQewiOi2q3-112" value="ID" style="text;html=1;align=left;verticalAlign=middle;whiteSpace=wrap;rounded=0;fontFamily=Times New Roman;" vertex="1" parent="yrrOHY21MLCQewiOi2q3-148">
          <mxGeometry x="20" y="20" width="76" height="20" as="geometry" />
        </mxCell>
        <mxCell id="yrrOHY21MLCQewiOi2q3-113" value="P_SUBJECT" style="text;html=1;align=left;verticalAlign=middle;whiteSpace=wrap;rounded=0;fontFamily=Times New Roman;" vertex="1" parent="yrrOHY21MLCQewiOi2q3-148">
          <mxGeometry x="20" y="40" width="76" height="20" as="geometry" />
        </mxCell>
        <mxCell id="yrrOHY21MLCQewiOi2q3-114" value="P_OBJECT" style="text;html=1;align=left;verticalAlign=middle;whiteSpace=wrap;rounded=0;fontFamily=Times New Roman;" vertex="1" parent="yrrOHY21MLCQewiOi2q3-148">
          <mxGeometry x="20" y="60" width="76" height="20" as="geometry" />
        </mxCell>
        <mxCell id="yrrOHY21MLCQewiOi2q3-115" value="FK" style="text;html=1;align=center;verticalAlign=middle;whiteSpace=wrap;rounded=0;fontFamily=Times New Roman;" vertex="1" parent="yrrOHY21MLCQewiOi2q3-148">
          <mxGeometry y="60" width="20" height="20" as="geometry" />
        </mxCell>
        <mxCell id="yrrOHY21MLCQewiOi2q3-116" value="FK" style="text;html=1;align=center;verticalAlign=middle;whiteSpace=wrap;rounded=0;fontFamily=Times New Roman;" vertex="1" parent="yrrOHY21MLCQewiOi2q3-148">
          <mxGeometry y="40" width="20" height="20" as="geometry" />
        </mxCell>
        <mxCell id="yrrOHY21MLCQewiOi2q3-117" value="B_OBJECT" style="text;html=1;align=left;verticalAlign=middle;whiteSpace=wrap;rounded=0;fontFamily=Times New Roman;" vertex="1" parent="yrrOHY21MLCQewiOi2q3-148">
          <mxGeometry x="20" y="100" width="76" height="20" as="geometry" />
        </mxCell>
        <mxCell id="yrrOHY21MLCQewiOi2q3-118" value="B_SUBJECT" style="text;html=1;align=left;verticalAlign=middle;whiteSpace=wrap;rounded=0;fontFamily=Times New Roman;" vertex="1" parent="yrrOHY21MLCQewiOi2q3-148">
          <mxGeometry x="20" y="80" width="76" height="20" as="geometry" />
        </mxCell>
        <mxCell id="yrrOHY21MLCQewiOi2q3-119" value="FK" style="text;html=1;align=center;verticalAlign=middle;whiteSpace=wrap;rounded=0;fontFamily=Times New Roman;" vertex="1" parent="yrrOHY21MLCQewiOi2q3-148">
          <mxGeometry y="100" width="20" height="20" as="geometry" />
        </mxCell>
        <mxCell id="yrrOHY21MLCQewiOi2q3-120" value="FK" style="text;html=1;align=center;verticalAlign=middle;whiteSpace=wrap;rounded=0;fontFamily=Times New Roman;" vertex="1" parent="yrrOHY21MLCQewiOi2q3-148">
          <mxGeometry y="80" width="20" height="20" as="geometry" />
        </mxCell>
        <mxCell id="yrrOHY21MLCQewiOi2q3-149" value="" style="group" vertex="1" connectable="0" parent="1">
          <mxGeometry x="231" y="240" width="170" height="260" as="geometry" />
        </mxCell>
        <mxCell id="yrrOHY21MLCQewiOi2q3-40" value="" style="rounded=0;whiteSpace=wrap;html=1;fontFamily=Times New Roman;" vertex="1" parent="yrrOHY21MLCQewiOi2q3-149">
          <mxGeometry width="170" height="20" as="geometry" />
        </mxCell>
        <mxCell id="yrrOHY21MLCQewiOi2q3-41" value="" style="shape=internalStorage;whiteSpace=wrap;html=1;backgroundOutline=1;fontFamily=Times New Roman;" vertex="1" parent="yrrOHY21MLCQewiOi2q3-149">
          <mxGeometry y="20" width="170" height="240" as="geometry" />
        </mxCell>
        <mxCell id="yrrOHY21MLCQewiOi2q3-42" value="VACANCIES" style="text;html=1;align=center;verticalAlign=middle;whiteSpace=wrap;rounded=0;fontFamily=Times New Roman;" vertex="1" parent="yrrOHY21MLCQewiOi2q3-149">
          <mxGeometry width="170" height="20" as="geometry" />
        </mxCell>
        <mxCell id="yrrOHY21MLCQewiOi2q3-43" value="PK" style="text;html=1;align=center;verticalAlign=middle;whiteSpace=wrap;rounded=0;fontFamily=Times New Roman;" vertex="1" parent="yrrOHY21MLCQewiOi2q3-149">
          <mxGeometry y="20" width="20" height="20" as="geometry" />
        </mxCell>
        <mxCell id="yrrOHY21MLCQewiOi2q3-44" value="ID" style="text;html=1;align=left;verticalAlign=middle;whiteSpace=wrap;rounded=0;fontFamily=Times New Roman;" vertex="1" parent="yrrOHY21MLCQewiOi2q3-149">
          <mxGeometry x="20" y="20" width="150" height="20" as="geometry" />
        </mxCell>
        <mxCell id="yrrOHY21MLCQewiOi2q3-46" value="NAME" style="text;html=1;align=left;verticalAlign=middle;whiteSpace=wrap;rounded=0;fontFamily=Times New Roman;" vertex="1" parent="yrrOHY21MLCQewiOi2q3-149">
          <mxGeometry x="20" y="40" width="100" height="20" as="geometry" />
        </mxCell>
        <mxCell id="yrrOHY21MLCQewiOi2q3-47" value="COMPANY" style="text;html=1;align=left;verticalAlign=middle;whiteSpace=wrap;rounded=0;fontFamily=Times New Roman;" vertex="1" parent="yrrOHY21MLCQewiOi2q3-149">
          <mxGeometry x="20" y="80" width="100" height="20" as="geometry" />
        </mxCell>
        <mxCell id="yrrOHY21MLCQewiOi2q3-50" value="RELEASE_DATE" style="text;html=1;align=left;verticalAlign=middle;whiteSpace=wrap;rounded=0;fontFamily=Times New Roman;" vertex="1" parent="yrrOHY21MLCQewiOi2q3-149">
          <mxGeometry x="20" y="60" width="100" height="20" as="geometry" />
        </mxCell>
        <mxCell id="yrrOHY21MLCQewiOi2q3-51" value="FK" style="text;html=1;align=center;verticalAlign=middle;whiteSpace=wrap;rounded=0;fontFamily=Times New Roman;" vertex="1" parent="yrrOHY21MLCQewiOi2q3-149">
          <mxGeometry y="80" width="20" height="20" as="geometry" />
        </mxCell>
        <mxCell id="yrrOHY21MLCQewiOi2q3-52" value="MIN_SALARY" style="text;html=1;align=left;verticalAlign=middle;whiteSpace=wrap;rounded=0;fontFamily=Times New Roman;" vertex="1" parent="yrrOHY21MLCQewiOi2q3-149">
          <mxGeometry x="20" y="100" width="100" height="20" as="geometry" />
        </mxCell>
        <mxCell id="yrrOHY21MLCQewiOi2q3-53" value="MAX_SALARY" style="text;html=1;align=left;verticalAlign=middle;whiteSpace=wrap;rounded=0;fontFamily=Times New Roman;" vertex="1" parent="yrrOHY21MLCQewiOi2q3-149">
          <mxGeometry x="20" y="120" width="100" height="20" as="geometry" />
        </mxCell>
        <mxCell id="yrrOHY21MLCQewiOi2q3-54" value="REGION" style="text;html=1;align=left;verticalAlign=middle;whiteSpace=wrap;rounded=0;fontFamily=Times New Roman;" vertex="1" parent="yrrOHY21MLCQewiOi2q3-149">
          <mxGeometry x="20" y="140" width="100" height="20" as="geometry" />
        </mxCell>
        <mxCell id="yrrOHY21MLCQewiOi2q3-55" value="SCHEDULE" style="text;html=1;align=left;verticalAlign=middle;whiteSpace=wrap;rounded=0;fontFamily=Times New Roman;" vertex="1" parent="yrrOHY21MLCQewiOi2q3-149">
          <mxGeometry x="20" y="160" width="100" height="20" as="geometry" />
        </mxCell>
        <mxCell id="yrrOHY21MLCQewiOi2q3-56" value="EXPERIENCE" style="text;html=1;align=left;verticalAlign=middle;whiteSpace=wrap;rounded=0;fontFamily=Times New Roman;" vertex="1" parent="yrrOHY21MLCQewiOi2q3-149">
          <mxGeometry x="20" y="180" width="100" height="20" as="geometry" />
        </mxCell>
        <mxCell id="yrrOHY21MLCQewiOi2q3-57" value="MIN_HOURS_PER_DAY" style="text;html=1;align=left;verticalAlign=middle;whiteSpace=wrap;rounded=0;fontFamily=Times New Roman;" vertex="1" parent="yrrOHY21MLCQewiOi2q3-149">
          <mxGeometry x="20" y="200" width="100" height="20" as="geometry" />
        </mxCell>
        <mxCell id="yrrOHY21MLCQewiOi2q3-58" value="MAX_HOURS_PER_DAY" style="text;html=1;align=left;verticalAlign=middle;whiteSpace=wrap;rounded=0;fontFamily=Times New Roman;" vertex="1" parent="yrrOHY21MLCQewiOi2q3-149">
          <mxGeometry x="20" y="220" width="100" height="20" as="geometry" />
        </mxCell>
        <mxCell id="yrrOHY21MLCQewiOi2q3-59" value="DESCRIPTION" style="text;html=1;align=left;verticalAlign=middle;whiteSpace=wrap;rounded=0;fontFamily=Times New Roman;" vertex="1" parent="yrrOHY21MLCQewiOi2q3-149">
          <mxGeometry x="20" y="240" width="100" height="20" as="geometry" />
        </mxCell>
        <mxCell id="yrrOHY21MLCQewiOi2q3-155" style="edgeStyle=orthogonalEdgeStyle;rounded=0;orthogonalLoop=1;jettySize=auto;html=1;exitX=1;exitY=0.5;exitDx=0;exitDy=0;entryX=1;entryY=0.75;entryDx=0;entryDy=0;fontFamily=Times New Roman;fontSize=12;fontColor=default;startArrow=ERone;startFill=0;endArrow=ERone;endFill=0;" edge="1" parent="1" source="yrrOHY21MLCQewiOi2q3-19" target="yrrOHY21MLCQewiOi2q3-129">
          <mxGeometry relative="1" as="geometry">
            <Array as="points">
              <mxPoint x="381" y="100" />
              <mxPoint x="381" y="50" />
              <mxPoint x="150" y="50" />
              <mxPoint x="150" y="15" />
            </Array>
          </mxGeometry>
        </mxCell>
        <mxCell id="yrrOHY21MLCQewiOi2q3-157" value="" style="group" vertex="1" connectable="0" parent="1">
          <mxGeometry x="111" y="70" width="90" height="180" as="geometry" />
        </mxCell>
        <mxCell id="yrrOHY21MLCQewiOi2q3-70" value="" style="rounded=0;whiteSpace=wrap;html=1;fontFamily=Times New Roman;" vertex="1" parent="yrrOHY21MLCQewiOi2q3-157">
          <mxGeometry width="90" height="20" as="geometry" />
        </mxCell>
        <mxCell id="yrrOHY21MLCQewiOi2q3-71" value="" style="shape=internalStorage;whiteSpace=wrap;html=1;backgroundOutline=1;fontFamily=Times New Roman;" vertex="1" parent="yrrOHY21MLCQewiOi2q3-157">
          <mxGeometry y="20" width="90" height="160" as="geometry" />
        </mxCell>
        <mxCell id="yrrOHY21MLCQewiOi2q3-72" value="REVIEWS" style="text;html=1;align=center;verticalAlign=middle;whiteSpace=wrap;rounded=0;fontFamily=Times New Roman;" vertex="1" parent="yrrOHY21MLCQewiOi2q3-157">
          <mxGeometry width="90" height="20" as="geometry" />
        </mxCell>
        <mxCell id="yrrOHY21MLCQewiOi2q3-73" value="PK" style="text;html=1;align=center;verticalAlign=middle;whiteSpace=wrap;rounded=0;fontFamily=Times New Roman;" vertex="1" parent="yrrOHY21MLCQewiOi2q3-157">
          <mxGeometry y="20" width="20" height="20" as="geometry" />
        </mxCell>
        <mxCell id="yrrOHY21MLCQewiOi2q3-74" value="ID" style="text;html=1;align=left;verticalAlign=middle;whiteSpace=wrap;rounded=0;fontFamily=Times New Roman;" vertex="1" parent="yrrOHY21MLCQewiOi2q3-157">
          <mxGeometry x="20" y="20" width="70" height="20" as="geometry" />
        </mxCell>
        <mxCell id="yrrOHY21MLCQewiOi2q3-75" value="P_SUBJECT" style="text;html=1;align=left;verticalAlign=middle;whiteSpace=wrap;rounded=0;fontFamily=Times New Roman;" vertex="1" parent="yrrOHY21MLCQewiOi2q3-157">
          <mxGeometry x="20" y="40" width="70" height="20" as="geometry" />
        </mxCell>
        <mxCell id="yrrOHY21MLCQewiOi2q3-76" value="P_OBJECT" style="text;html=1;align=left;verticalAlign=middle;whiteSpace=wrap;rounded=0;fontFamily=Times New Roman;" vertex="1" parent="yrrOHY21MLCQewiOi2q3-157">
          <mxGeometry x="20" y="60" width="70" height="20" as="geometry" />
        </mxCell>
        <mxCell id="yrrOHY21MLCQewiOi2q3-78" value="FK" style="text;html=1;align=center;verticalAlign=middle;whiteSpace=wrap;rounded=0;fontFamily=Times New Roman;" vertex="1" parent="yrrOHY21MLCQewiOi2q3-157">
          <mxGeometry y="60" width="20" height="20" as="geometry" />
        </mxCell>
        <mxCell id="yrrOHY21MLCQewiOi2q3-79" value="FK" style="text;html=1;align=center;verticalAlign=middle;whiteSpace=wrap;rounded=0;fontFamily=Times New Roman;" vertex="1" parent="yrrOHY21MLCQewiOi2q3-157">
          <mxGeometry y="40" width="20" height="20" as="geometry" />
        </mxCell>
        <mxCell id="yrrOHY21MLCQewiOi2q3-80" value="B_OBJECT" style="text;html=1;align=left;verticalAlign=middle;whiteSpace=wrap;rounded=0;fontFamily=Times New Roman;" vertex="1" parent="yrrOHY21MLCQewiOi2q3-157">
          <mxGeometry x="20" y="100" width="70" height="20" as="geometry" />
        </mxCell>
        <mxCell id="yrrOHY21MLCQewiOi2q3-81" value="B_SUBJECT" style="text;html=1;align=left;verticalAlign=middle;whiteSpace=wrap;rounded=0;fontFamily=Times New Roman;" vertex="1" parent="yrrOHY21MLCQewiOi2q3-157">
          <mxGeometry x="20" y="80" width="70" height="20" as="geometry" />
        </mxCell>
        <mxCell id="yrrOHY21MLCQewiOi2q3-82" value="FK" style="text;html=1;align=center;verticalAlign=middle;whiteSpace=wrap;rounded=0;fontFamily=Times New Roman;" vertex="1" parent="yrrOHY21MLCQewiOi2q3-157">
          <mxGeometry y="100" width="20" height="20" as="geometry" />
        </mxCell>
        <mxCell id="yrrOHY21MLCQewiOi2q3-83" value="FK" style="text;html=1;align=center;verticalAlign=middle;whiteSpace=wrap;rounded=0;fontFamily=Times New Roman;" vertex="1" parent="yrrOHY21MLCQewiOi2q3-157">
          <mxGeometry y="80" width="20" height="20" as="geometry" />
        </mxCell>
        <mxCell id="yrrOHY21MLCQewiOi2q3-84" value="TEXT" style="text;html=1;align=left;verticalAlign=middle;whiteSpace=wrap;rounded=0;fontFamily=Times New Roman;" vertex="1" parent="yrrOHY21MLCQewiOi2q3-157">
          <mxGeometry x="20" y="120" width="70" height="20" as="geometry" />
        </mxCell>
        <mxCell id="yrrOHY21MLCQewiOi2q3-85" value="RATING" style="text;html=1;align=left;verticalAlign=middle;whiteSpace=wrap;rounded=0;fontFamily=Times New Roman;" vertex="1" parent="yrrOHY21MLCQewiOi2q3-157">
          <mxGeometry x="20" y="140" width="70" height="20" as="geometry" />
        </mxCell>
        <mxCell id="yrrOHY21MLCQewiOi2q3-86" value="REPORTED" style="text;html=1;align=left;verticalAlign=middle;whiteSpace=wrap;rounded=0;fontFamily=Times New Roman;" vertex="1" parent="yrrOHY21MLCQewiOi2q3-157">
          <mxGeometry x="20" y="160" width="70" height="20" as="geometry" />
        </mxCell>
        <mxCell id="yrrOHY21MLCQewiOi2q3-161" style="edgeStyle=orthogonalEdgeStyle;rounded=0;orthogonalLoop=1;jettySize=auto;html=1;exitX=0;exitY=0.5;exitDx=0;exitDy=0;entryX=1;entryY=0.5;entryDx=0;entryDy=0;fontFamily=Times New Roman;fontSize=12;fontColor=default;startArrow=ERone;startFill=0;endArrow=ERzeroToMany;endFill=0;" edge="1" parent="1" source="yrrOHY21MLCQewiOi2q3-18" target="yrrOHY21MLCQewiOi2q3-117">
          <mxGeometry relative="1" as="geometry">
            <Array as="points">
              <mxPoint x="220" y="100" />
              <mxPoint x="220" y="370" />
            </Array>
          </mxGeometry>
        </mxCell>
        <mxCell id="yrrOHY21MLCQewiOi2q3-162" style="edgeStyle=orthogonalEdgeStyle;rounded=0;orthogonalLoop=1;jettySize=auto;html=1;exitX=0;exitY=0.5;exitDx=0;exitDy=0;entryX=1;entryY=0.5;entryDx=0;entryDy=0;fontFamily=Times New Roman;fontSize=12;fontColor=default;startArrow=ERone;startFill=0;endArrow=ERzeroToMany;endFill=0;" edge="1" parent="1" source="yrrOHY21MLCQewiOi2q3-18" target="yrrOHY21MLCQewiOi2q3-118">
          <mxGeometry relative="1" as="geometry">
            <Array as="points">
              <mxPoint x="220" y="100" />
              <mxPoint x="220" y="350" />
            </Array>
          </mxGeometry>
        </mxCell>
        <mxCell id="yrrOHY21MLCQewiOi2q3-163" style="edgeStyle=orthogonalEdgeStyle;rounded=0;orthogonalLoop=1;jettySize=auto;html=1;exitX=0;exitY=0.5;exitDx=0;exitDy=0;entryX=1;entryY=0.5;entryDx=0;entryDy=0;fontFamily=Times New Roman;fontSize=12;fontColor=default;startArrow=ERone;startFill=0;endArrow=ERzeroToMany;endFill=0;" edge="1" parent="1" source="yrrOHY21MLCQewiOi2q3-18" target="yrrOHY21MLCQewiOi2q3-80">
          <mxGeometry relative="1" as="geometry">
            <Array as="points">
              <mxPoint x="220" y="100" />
              <mxPoint x="220" y="180" />
            </Array>
          </mxGeometry>
        </mxCell>
        <mxCell id="yrrOHY21MLCQewiOi2q3-164" style="edgeStyle=orthogonalEdgeStyle;rounded=0;orthogonalLoop=1;jettySize=auto;html=1;exitX=0;exitY=0.5;exitDx=0;exitDy=0;entryX=1;entryY=0.5;entryDx=0;entryDy=0;fontFamily=Times New Roman;fontSize=12;fontColor=default;startArrow=ERone;startFill=0;endArrow=ERzeroToMany;endFill=0;" edge="1" parent="1" source="yrrOHY21MLCQewiOi2q3-18" target="yrrOHY21MLCQewiOi2q3-81">
          <mxGeometry relative="1" as="geometry">
            <Array as="points">
              <mxPoint x="220" y="100" />
              <mxPoint x="220" y="160" />
            </Array>
          </mxGeometry>
        </mxCell>
        <mxCell id="yrrOHY21MLCQewiOi2q3-165" style="edgeStyle=orthogonalEdgeStyle;rounded=0;orthogonalLoop=1;jettySize=auto;html=1;exitX=1;exitY=0.5;exitDx=0;exitDy=0;entryX=1;entryY=0.5;entryDx=0;entryDy=0;fontFamily=Times New Roman;fontSize=12;fontColor=default;startArrow=ERone;startFill=0;endArrow=ERone;endFill=0;" edge="1" parent="1" source="yrrOHY21MLCQewiOi2q3-7" target="yrrOHY21MLCQewiOi2q3-131">
          <mxGeometry relative="1" as="geometry">
            <Array as="points">
              <mxPoint x="90" y="100" />
              <mxPoint x="90" y="66" />
              <mxPoint x="140" y="66" />
              <mxPoint x="140" y="30" />
            </Array>
          </mxGeometry>
        </mxCell>
        <mxCell id="yrrOHY21MLCQewiOi2q3-166" style="edgeStyle=orthogonalEdgeStyle;rounded=0;orthogonalLoop=1;jettySize=auto;html=1;exitX=1;exitY=0.5;exitDx=0;exitDy=0;entryX=0;entryY=0.5;entryDx=0;entryDy=0;fontFamily=Times New Roman;fontSize=12;fontColor=default;startArrow=ERone;startFill=0;endArrow=ERzeroToMany;endFill=0;" edge="1" parent="1" source="yrrOHY21MLCQewiOi2q3-7" target="yrrOHY21MLCQewiOi2q3-79">
          <mxGeometry relative="1" as="geometry">
            <Array as="points">
              <mxPoint x="90" y="100" />
              <mxPoint x="90" y="120" />
            </Array>
          </mxGeometry>
        </mxCell>
        <mxCell id="yrrOHY21MLCQewiOi2q3-167" style="edgeStyle=orthogonalEdgeStyle;rounded=0;orthogonalLoop=1;jettySize=auto;html=1;exitX=1;exitY=0.5;exitDx=0;exitDy=0;entryX=0;entryY=0.5;entryDx=0;entryDy=0;fontFamily=Times New Roman;fontSize=12;fontColor=default;startArrow=ERone;startFill=0;endArrow=ERzeroToMany;endFill=0;" edge="1" parent="1" source="yrrOHY21MLCQewiOi2q3-7" target="yrrOHY21MLCQewiOi2q3-78">
          <mxGeometry relative="1" as="geometry">
            <Array as="points">
              <mxPoint x="90" y="100" />
              <mxPoint x="90" y="140" />
            </Array>
          </mxGeometry>
        </mxCell>
        <mxCell id="yrrOHY21MLCQewiOi2q3-168" style="edgeStyle=orthogonalEdgeStyle;rounded=0;orthogonalLoop=1;jettySize=auto;html=1;exitX=1;exitY=0.5;exitDx=0;exitDy=0;entryX=0;entryY=0.5;entryDx=0;entryDy=0;fontFamily=Times New Roman;fontSize=12;fontColor=default;startArrow=ERone;startFill=0;endArrow=ERzeroToMany;endFill=0;" edge="1" parent="1" source="yrrOHY21MLCQewiOi2q3-7" target="yrrOHY21MLCQewiOi2q3-115">
          <mxGeometry relative="1" as="geometry">
            <Array as="points">
              <mxPoint x="90" y="100" />
              <mxPoint x="90" y="330" />
            </Array>
          </mxGeometry>
        </mxCell>
        <mxCell id="yrrOHY21MLCQewiOi2q3-169" style="edgeStyle=orthogonalEdgeStyle;rounded=0;orthogonalLoop=1;jettySize=auto;html=1;exitX=1;exitY=0.5;exitDx=0;exitDy=0;entryX=0;entryY=0.5;entryDx=0;entryDy=0;fontFamily=Times New Roman;fontSize=12;fontColor=default;startArrow=ERone;startFill=0;endArrow=ERzeroToMany;endFill=0;" edge="1" parent="1" source="yrrOHY21MLCQewiOi2q3-7" target="yrrOHY21MLCQewiOi2q3-116">
          <mxGeometry relative="1" as="geometry">
            <Array as="points">
              <mxPoint x="90" y="100" />
              <mxPoint x="90" y="310" />
            </Array>
          </mxGeometry>
        </mxCell>
        <mxCell id="yrrOHY21MLCQewiOi2q3-170" value="" style="group" vertex="1" connectable="0" parent="1">
          <mxGeometry x="114" y="400" width="90" height="100" as="geometry" />
        </mxCell>
        <mxCell id="yrrOHY21MLCQewiOi2q3-97" value="" style="rounded=0;whiteSpace=wrap;html=1;fontFamily=Times New Roman;" vertex="1" parent="yrrOHY21MLCQewiOi2q3-170">
          <mxGeometry width="90" height="20" as="geometry" />
        </mxCell>
        <mxCell id="yrrOHY21MLCQewiOi2q3-98" value="" style="shape=internalStorage;whiteSpace=wrap;html=1;backgroundOutline=1;fontFamily=Times New Roman;" vertex="1" parent="yrrOHY21MLCQewiOi2q3-170">
          <mxGeometry y="20" width="90" height="80" as="geometry" />
        </mxCell>
        <mxCell id="yrrOHY21MLCQewiOi2q3-99" value="TOKENS" style="text;html=1;align=center;verticalAlign=middle;whiteSpace=wrap;rounded=0;fontFamily=Times New Roman;" vertex="1" parent="yrrOHY21MLCQewiOi2q3-170">
          <mxGeometry width="90" height="20" as="geometry" />
        </mxCell>
        <mxCell id="yrrOHY21MLCQewiOi2q3-100" value="PK" style="text;html=1;align=center;verticalAlign=middle;whiteSpace=wrap;rounded=0;fontFamily=Times New Roman;" vertex="1" parent="yrrOHY21MLCQewiOi2q3-170">
          <mxGeometry y="20" width="20" height="20" as="geometry" />
        </mxCell>
        <mxCell id="yrrOHY21MLCQewiOi2q3-101" value="ID" style="text;html=1;align=left;verticalAlign=middle;whiteSpace=wrap;rounded=0;fontFamily=Times New Roman;" vertex="1" parent="yrrOHY21MLCQewiOi2q3-170">
          <mxGeometry x="20" y="20" width="70" height="20" as="geometry" />
        </mxCell>
        <mxCell id="yrrOHY21MLCQewiOi2q3-102" value="OWNER_P" style="text;html=1;align=left;verticalAlign=middle;whiteSpace=wrap;rounded=0;fontFamily=Times New Roman;" vertex="1" parent="yrrOHY21MLCQewiOi2q3-170">
          <mxGeometry x="20" y="40" width="70" height="20" as="geometry" />
        </mxCell>
        <mxCell id="yrrOHY21MLCQewiOi2q3-104" value="FK" style="text;html=1;align=center;verticalAlign=middle;whiteSpace=wrap;rounded=0;fontFamily=Times New Roman;" vertex="1" parent="yrrOHY21MLCQewiOi2q3-170">
          <mxGeometry y="40" width="20" height="20" as="geometry" />
        </mxCell>
        <mxCell id="yrrOHY21MLCQewiOi2q3-105" value="OWNER_B" style="text;html=1;align=left;verticalAlign=middle;whiteSpace=wrap;rounded=0;fontFamily=Times New Roman;" vertex="1" parent="yrrOHY21MLCQewiOi2q3-170">
          <mxGeometry x="20" y="60" width="70" height="20" as="geometry" />
        </mxCell>
        <mxCell id="yrrOHY21MLCQewiOi2q3-106" value="VALUE" style="text;html=1;align=left;verticalAlign=middle;whiteSpace=wrap;rounded=0;fontFamily=Times New Roman;" vertex="1" parent="yrrOHY21MLCQewiOi2q3-170">
          <mxGeometry x="20" y="80" width="70" height="20" as="geometry" />
        </mxCell>
        <mxCell id="yrrOHY21MLCQewiOi2q3-107" value="FK" style="text;html=1;align=center;verticalAlign=middle;whiteSpace=wrap;rounded=0;fontFamily=Times New Roman;" vertex="1" parent="yrrOHY21MLCQewiOi2q3-170">
          <mxGeometry y="60" width="20" height="20" as="geometry" />
        </mxCell>
        <mxCell id="yrrOHY21MLCQewiOi2q3-173" style="edgeStyle=orthogonalEdgeStyle;rounded=0;orthogonalLoop=1;jettySize=auto;html=1;exitX=1;exitY=0.5;exitDx=0;exitDy=0;entryX=1;entryY=0.5;entryDx=0;entryDy=0;fontFamily=Times New Roman;fontSize=12;fontColor=default;endArrow=ERzeroToMany;endFill=0;" edge="1" parent="1" source="yrrOHY21MLCQewiOi2q3-44" target="yrrOHY21MLCQewiOi2q3-66">
          <mxGeometry relative="1" as="geometry">
            <Array as="points">
              <mxPoint x="410" y="270" />
              <mxPoint x="410" y="510" />
              <mxPoint x="90" y="510" />
              <mxPoint x="90" y="470" />
            </Array>
          </mxGeometry>
        </mxCell>
        <mxCell id="yrrOHY21MLCQewiOi2q3-174" style="edgeStyle=orthogonalEdgeStyle;rounded=0;orthogonalLoop=1;jettySize=auto;html=1;exitX=0;exitY=0.5;exitDx=0;exitDy=0;entryX=1;entryY=0.5;entryDx=0;entryDy=0;fontFamily=Times New Roman;fontSize=12;fontColor=default;startArrow=ERone;startFill=0;endArrow=ERzeroToOne;endFill=0;" edge="1" parent="1" source="yrrOHY21MLCQewiOi2q3-18" target="yrrOHY21MLCQewiOi2q3-105">
          <mxGeometry relative="1" as="geometry">
            <Array as="points">
              <mxPoint x="220" y="100" />
              <mxPoint x="220" y="470" />
            </Array>
          </mxGeometry>
        </mxCell>
        <mxCell id="yrrOHY21MLCQewiOi2q3-175" style="edgeStyle=orthogonalEdgeStyle;rounded=0;orthogonalLoop=1;jettySize=auto;html=1;exitX=1;exitY=0.5;exitDx=0;exitDy=0;entryX=0;entryY=0.5;entryDx=0;entryDy=0;fontFamily=Times New Roman;fontSize=12;fontColor=default;startArrow=ERone;startFill=0;endArrow=ERzeroToOne;endFill=0;" edge="1" parent="1" source="yrrOHY21MLCQewiOi2q3-7" target="yrrOHY21MLCQewiOi2q3-104">
          <mxGeometry relative="1" as="geometry">
            <Array as="points">
              <mxPoint x="90" y="100" />
              <mxPoint x="90" y="450" />
            </Array>
          </mxGeometry>
        </mxCell>
        <mxCell id="yrrOHY21MLCQewiOi2q3-178" style="edgeStyle=orthogonalEdgeStyle;rounded=0;orthogonalLoop=1;jettySize=auto;html=1;exitX=1;exitY=0.5;exitDx=0;exitDy=0;entryX=1;entryY=0.5;entryDx=0;entryDy=0;fontFamily=Times New Roman;fontSize=12;fontColor=default;startArrow=ERone;startFill=0;endArrow=ERone;endFill=0;" edge="1" parent="1" source="yrrOHY21MLCQewiOi2q3-19" target="yrrOHY21MLCQewiOi2q3-92">
          <mxGeometry relative="1" as="geometry" />
        </mxCell>
        <mxCell id="yrrOHY21MLCQewiOi2q3-176" style="edgeStyle=orthogonalEdgeStyle;rounded=0;orthogonalLoop=1;jettySize=auto;html=1;exitX=1;exitY=0.5;exitDx=0;exitDy=0;entryX=1;entryY=0.5;entryDx=0;entryDy=0;fontFamily=Times New Roman;fontSize=12;fontColor=default;startArrow=ERone;startFill=0;endArrow=ERzeroToMany;endFill=0;" edge="1" parent="1" source="yrrOHY21MLCQewiOi2q3-7" target="yrrOHY21MLCQewiOi2q3-33">
          <mxGeometry relative="1" as="geometry">
            <Array as="points">
              <mxPoint x="90" y="100" />
              <mxPoint x="90" y="340" />
            </Array>
          </mxGeometry>
        </mxCell>
        <mxCell id="yrrOHY21MLCQewiOi2q3-172" value="" style="group" vertex="1" connectable="0" parent="1">
          <mxGeometry x="-40" y="270" width="100" height="100" as="geometry" />
        </mxCell>
        <mxCell id="yrrOHY21MLCQewiOi2q3-27" value="" style="rounded=0;whiteSpace=wrap;html=1;fontFamily=Times New Roman;" vertex="1" parent="yrrOHY21MLCQewiOi2q3-172">
          <mxGeometry width="100" height="20" as="geometry" />
        </mxCell>
        <mxCell id="yrrOHY21MLCQewiOi2q3-28" value="" style="shape=internalStorage;whiteSpace=wrap;html=1;backgroundOutline=1;fontFamily=Times New Roman;" vertex="1" parent="yrrOHY21MLCQewiOi2q3-172">
          <mxGeometry y="20" width="100" height="80" as="geometry" />
        </mxCell>
        <mxCell id="yrrOHY21MLCQewiOi2q3-29" value="CVS" style="text;html=1;align=center;verticalAlign=middle;whiteSpace=wrap;rounded=0;fontFamily=Times New Roman;" vertex="1" parent="yrrOHY21MLCQewiOi2q3-172">
          <mxGeometry width="100" height="20" as="geometry" />
        </mxCell>
        <mxCell id="yrrOHY21MLCQewiOi2q3-30" value="PK" style="text;html=1;align=center;verticalAlign=middle;whiteSpace=wrap;rounded=0;fontFamily=Times New Roman;" vertex="1" parent="yrrOHY21MLCQewiOi2q3-172">
          <mxGeometry y="20" width="20" height="20" as="geometry" />
        </mxCell>
        <mxCell id="yrrOHY21MLCQewiOi2q3-31" value="ID" style="text;html=1;align=left;verticalAlign=middle;whiteSpace=wrap;rounded=0;fontFamily=Times New Roman;" vertex="1" parent="yrrOHY21MLCQewiOi2q3-172">
          <mxGeometry x="20" y="20" width="80" height="20" as="geometry" />
        </mxCell>
        <mxCell id="yrrOHY21MLCQewiOi2q3-32" value="NAME" style="text;html=1;align=left;verticalAlign=middle;whiteSpace=wrap;rounded=0;fontFamily=Times New Roman;" vertex="1" parent="yrrOHY21MLCQewiOi2q3-172">
          <mxGeometry x="20" y="40" width="80" height="20" as="geometry" />
        </mxCell>
        <mxCell id="yrrOHY21MLCQewiOi2q3-33" value="APPLICANT" style="text;html=1;align=left;verticalAlign=middle;whiteSpace=wrap;rounded=0;fontFamily=Times New Roman;" vertex="1" parent="yrrOHY21MLCQewiOi2q3-172">
          <mxGeometry x="20" y="60" width="80" height="20" as="geometry" />
        </mxCell>
        <mxCell id="yrrOHY21MLCQewiOi2q3-34" value="SKILLS_JSON" style="text;html=1;align=left;verticalAlign=middle;whiteSpace=wrap;rounded=0;fontFamily=Times New Roman;" vertex="1" parent="yrrOHY21MLCQewiOi2q3-172">
          <mxGeometry x="20" y="80" width="80" height="20" as="geometry" />
        </mxCell>
        <mxCell id="yrrOHY21MLCQewiOi2q3-39" value="FK" style="text;html=1;align=center;verticalAlign=middle;whiteSpace=wrap;rounded=0;fontFamily=Times New Roman;" vertex="1" parent="yrrOHY21MLCQewiOi2q3-172">
          <mxGeometry y="60" width="20" height="20" as="geometry" />
        </mxCell>
        <mxCell id="yrrOHY21MLCQewiOi2q3-171" value="" style="group" vertex="1" connectable="0" parent="1">
          <mxGeometry x="-20" y="400" width="90" height="100" as="geometry" />
        </mxCell>
        <mxCell id="yrrOHY21MLCQewiOi2q3-60" value="" style="rounded=0;whiteSpace=wrap;html=1;fontFamily=Times New Roman;" vertex="1" parent="yrrOHY21MLCQewiOi2q3-171">
          <mxGeometry width="90" height="20" as="geometry" />
        </mxCell>
        <mxCell id="yrrOHY21MLCQewiOi2q3-61" value="" style="shape=internalStorage;whiteSpace=wrap;html=1;backgroundOutline=1;fontFamily=Times New Roman;" vertex="1" parent="yrrOHY21MLCQewiOi2q3-171">
          <mxGeometry y="20" width="90" height="80" as="geometry" />
        </mxCell>
        <mxCell id="yrrOHY21MLCQewiOi2q3-62" value="RESPONSES" style="text;html=1;align=center;verticalAlign=middle;whiteSpace=wrap;rounded=0;fontFamily=Times New Roman;" vertex="1" parent="yrrOHY21MLCQewiOi2q3-171">
          <mxGeometry width="90" height="20" as="geometry" />
        </mxCell>
        <mxCell id="yrrOHY21MLCQewiOi2q3-63" value="PK" style="text;html=1;align=center;verticalAlign=middle;whiteSpace=wrap;rounded=0;fontFamily=Times New Roman;" vertex="1" parent="yrrOHY21MLCQewiOi2q3-171">
          <mxGeometry y="20" width="20" height="20" as="geometry" />
        </mxCell>
        <mxCell id="yrrOHY21MLCQewiOi2q3-64" value="ID" style="text;html=1;align=left;verticalAlign=middle;whiteSpace=wrap;rounded=0;fontFamily=Times New Roman;" vertex="1" parent="yrrOHY21MLCQewiOi2q3-171">
          <mxGeometry x="20" y="20" width="70" height="20" as="geometry" />
        </mxCell>
        <mxCell id="yrrOHY21MLCQewiOi2q3-65" value="CV" style="text;html=1;align=left;verticalAlign=middle;whiteSpace=wrap;rounded=0;fontFamily=Times New Roman;" vertex="1" parent="yrrOHY21MLCQewiOi2q3-171">
          <mxGeometry x="20" y="40" width="70" height="20" as="geometry" />
        </mxCell>
        <mxCell id="yrrOHY21MLCQewiOi2q3-66" value="VACANCY" style="text;html=1;align=left;verticalAlign=middle;whiteSpace=wrap;rounded=0;fontFamily=Times New Roman;" vertex="1" parent="yrrOHY21MLCQewiOi2q3-171">
          <mxGeometry x="20" y="60" width="70" height="20" as="geometry" />
        </mxCell>
        <mxCell id="yrrOHY21MLCQewiOi2q3-67" value="STATUS" style="text;html=1;align=left;verticalAlign=middle;whiteSpace=wrap;rounded=0;fontFamily=Times New Roman;" vertex="1" parent="yrrOHY21MLCQewiOi2q3-171">
          <mxGeometry x="20" y="80" width="70" height="20" as="geometry" />
        </mxCell>
        <mxCell id="yrrOHY21MLCQewiOi2q3-68" value="FK" style="text;html=1;align=center;verticalAlign=middle;whiteSpace=wrap;rounded=0;fontFamily=Times New Roman;" vertex="1" parent="yrrOHY21MLCQewiOi2q3-171">
          <mxGeometry y="60" width="20" height="20" as="geometry" />
        </mxCell>
        <mxCell id="yrrOHY21MLCQewiOi2q3-69" value="FK" style="text;html=1;align=center;verticalAlign=middle;whiteSpace=wrap;rounded=0;fontFamily=Times New Roman;" vertex="1" parent="yrrOHY21MLCQewiOi2q3-171">
          <mxGeometry y="40" width="20" height="20" as="geometry" />
        </mxCell>
        <mxCell id="yrrOHY21MLCQewiOi2q3-177" style="edgeStyle=orthogonalEdgeStyle;rounded=0;orthogonalLoop=1;jettySize=auto;html=1;exitX=0;exitY=0.5;exitDx=0;exitDy=0;entryX=0;entryY=0.5;entryDx=0;entryDy=0;fontFamily=Times New Roman;fontSize=12;fontColor=default;endArrow=ERzeroToMany;endFill=0;" edge="1" parent="1" source="yrrOHY21MLCQewiOi2q3-30" target="yrrOHY21MLCQewiOi2q3-69">
          <mxGeometry relative="1" as="geometry">
            <Array as="points">
              <mxPoint x="-50" y="300" />
              <mxPoint x="-50" y="450" />
            </Array>
          </mxGeometry>
        </mxCell>
        <mxCell id="yrrOHY21MLCQewiOi2q3-179" value="" style="group" vertex="1" connectable="0" parent="1">
          <mxGeometry x="-50" y="70" width="130" height="180" as="geometry" />
        </mxCell>
        <mxCell id="yrrOHY21MLCQewiOi2q3-5" value="" style="rounded=0;whiteSpace=wrap;html=1;fontFamily=Times New Roman;" vertex="1" parent="yrrOHY21MLCQewiOi2q3-179">
          <mxGeometry width="130" height="20" as="geometry" />
        </mxCell>
        <mxCell id="yrrOHY21MLCQewiOi2q3-1" value="" style="shape=internalStorage;whiteSpace=wrap;html=1;backgroundOutline=1;fontFamily=Times New Roman;" vertex="1" parent="yrrOHY21MLCQewiOi2q3-179">
          <mxGeometry y="20" width="130" height="160" as="geometry" />
        </mxCell>
        <mxCell id="yrrOHY21MLCQewiOi2q3-2" value="PROLETARIAT" style="text;html=1;align=center;verticalAlign=middle;whiteSpace=wrap;rounded=0;fontFamily=Times New Roman;" vertex="1" parent="yrrOHY21MLCQewiOi2q3-179">
          <mxGeometry width="130" height="20" as="geometry" />
        </mxCell>
        <mxCell id="yrrOHY21MLCQewiOi2q3-3" value="PK" style="text;html=1;align=center;verticalAlign=middle;whiteSpace=wrap;rounded=0;fontFamily=Times New Roman;" vertex="1" parent="yrrOHY21MLCQewiOi2q3-179">
          <mxGeometry y="20" width="20" height="20" as="geometry" />
        </mxCell>
        <mxCell id="yrrOHY21MLCQewiOi2q3-7" value="ID" style="text;html=1;align=left;verticalAlign=middle;whiteSpace=wrap;rounded=0;fontFamily=Times New Roman;" vertex="1" parent="yrrOHY21MLCQewiOi2q3-179">
          <mxGeometry x="20" y="20" width="110" height="20" as="geometry" />
        </mxCell>
        <mxCell id="yrrOHY21MLCQewiOi2q3-8" value="LOGIN" style="text;html=1;align=left;verticalAlign=middle;whiteSpace=wrap;rounded=0;fontFamily=Times New Roman;" vertex="1" parent="yrrOHY21MLCQewiOi2q3-179">
          <mxGeometry x="20" y="40" width="100" height="20" as="geometry" />
        </mxCell>
        <mxCell id="yrrOHY21MLCQewiOi2q3-9" value="NAME" style="text;html=1;align=left;verticalAlign=middle;whiteSpace=wrap;rounded=0;fontFamily=Times New Roman;" vertex="1" parent="yrrOHY21MLCQewiOi2q3-179">
          <mxGeometry x="20" y="60" width="100" height="20" as="geometry" />
        </mxCell>
        <mxCell id="yrrOHY21MLCQewiOi2q3-10" value="PASSWORD_HASH" style="text;html=1;align=left;verticalAlign=middle;whiteSpace=wrap;rounded=0;fontFamily=Times New Roman;" vertex="1" parent="yrrOHY21MLCQewiOi2q3-179">
          <mxGeometry x="20" y="80" width="100" height="20" as="geometry" />
        </mxCell>
        <mxCell id="yrrOHY21MLCQewiOi2q3-11" value="IS_ADMIN" style="text;html=1;align=left;verticalAlign=middle;whiteSpace=wrap;rounded=0;fontFamily=Times New Roman;" vertex="1" parent="yrrOHY21MLCQewiOi2q3-179">
          <mxGeometry x="20" y="100" width="100" height="20" as="geometry" />
        </mxCell>
        <mxCell id="yrrOHY21MLCQewiOi2q3-12" value="EDUCATION_JSON" style="text;html=1;align=left;verticalAlign=middle;whiteSpace=wrap;rounded=0;fontFamily=Times New Roman;" vertex="1" parent="yrrOHY21MLCQewiOi2q3-179">
          <mxGeometry x="20" y="120" width="100" height="20" as="geometry" />
        </mxCell>
        <mxCell id="yrrOHY21MLCQewiOi2q3-13" value="EXPERIENCE_JSON" style="text;html=1;align=left;verticalAlign=middle;whiteSpace=wrap;rounded=0;fontFamily=Times New Roman;" vertex="1" parent="yrrOHY21MLCQewiOi2q3-179">
          <mxGeometry x="20" y="140" width="100" height="20" as="geometry" />
        </mxCell>
        <mxCell id="yrrOHY21MLCQewiOi2q3-14" value="EMAIL" style="text;html=1;align=left;verticalAlign=middle;whiteSpace=wrap;rounded=0;fontFamily=Times New Roman;" vertex="1" parent="yrrOHY21MLCQewiOi2q3-179">
          <mxGeometry x="20" y="160" width="100" height="20" as="geometry" />
        </mxCell>
      </root>
    </mxGraphModel>
  </diagram>
</mxfile>
